<svg xmlns="http://www.w3.org/2000/svg" xmlns:xlink="http://www.w3.org/1999/xlink" width="600" height="480" viewBox="0 0 600 480"><desc>Produced by GNUPLOT 4.4 patchlevel 3</desc><defs><circle id="gpDot" r=".5" stroke-width=".5"/><path id="gpPt0" stroke="currentColor" stroke-width=".222" d="M-1,0 h2 M0,-1 v2"/><path id="gpPt1" stroke="currentColor" stroke-width=".222" d="M-1,-1 L1,1 M1,-1 L-1,1"/><path id="gpPt2" stroke="currentColor" stroke-width=".222" d="M-1,0 L1,0 M0,-1 L0,1 M-1,-1 L1,1 M-1,1 L1,-1"/><rect id="gpPt3" width="2" height="2" x="-1" y="-1" stroke="currentColor" stroke-width=".222"/><rect id="gpPt4" width="2" height="2" x="-1" y="-1" fill="currentColor" stroke="currentColor" stroke-width=".222"/><circle id="gpPt5" cx="0" cy="0" r="1" stroke="currentColor" stroke-width=".222"/><use id="gpPt6" fill="currentColor" stroke="none" xlink:href="#gpPt5"/><path id="gpPt7" stroke="currentColor" stroke-width=".222" d="M0,-1.33 L-1.33,0.67 L1.33,0.67 z"/><use id="gpPt8" fill="currentColor" stroke="none" xlink:href="#gpPt7"/><use id="gpPt9" stroke="currentColor" transform="rotate(180)" xlink:href="#gpPt7"/><use id="gpPt10" fill="currentColor" stroke="none" xlink:href="#gpPt9"/><use id="gpPt11" stroke="currentColor" transform="rotate(45)" xlink:href="#gpPt3"/><use id="gpPt12" fill="currentColor" stroke="none" xlink:href="#gpPt11"/></defs><g style="fill:none;color:gray;stroke:currentColor;stroke-width:1;stroke-linecap:butt;stroke-linejoin:miter"><path d="M96.8,422.4 L575.0,422.4"/></g><g style="fill:none;color:#000;stroke:currentColor;stroke-width:1;stroke-linecap:butt;stroke-linejoin:miter"><path d="M96.8,422.4 L105.8,422.4 M575.0,422.4 L566.0,422.4"/><g style="stroke:none;fill:#000;font-family:Arial;font-size:12pt;text-anchor:end"><text transform="translate(88.5,426.9)">1e-22</text></g></g><g style="fill:none;color:gray;stroke:currentColor;stroke-width:1;stroke-linecap:butt;stroke-linejoin:miter"><path d="M96.8,405.7 L575.0,405.7"/></g><g style="fill:none;color:#000;stroke:currentColor;stroke-width:1;stroke-linecap:butt;stroke-linejoin:miter"><path d="M96.8,405.7 L101.3,405.7 M575.0,405.7 L570.5,405.7"/></g><g style="fill:none;color:gray;stroke:currentColor;stroke-width:1;stroke-linecap:butt;stroke-linejoin:miter"><path d="M96.8,388.9 L575.0,388.9"/></g><g style="fill:none;color:#000;stroke:currentColor;stroke-width:1;stroke-linecap:butt;stroke-linejoin:miter"><path d="M96.8,388.9 L105.8,388.9 M575.0,388.9 L566.0,388.9"/><g style="stroke:none;fill:#000;font-family:Arial;font-size:12pt;text-anchor:end"><text transform="translate(88.5,393.4)">1e-20</text></g></g><g style="fill:none;color:gray;stroke:currentColor;stroke-width:1;stroke-linecap:butt;stroke-linejoin:miter"><path d="M96.8,372.2 L575.0,372.2"/></g><g style="fill:none;color:#000;stroke:currentColor;stroke-width:1;stroke-linecap:butt;stroke-linejoin:miter"><path d="M96.8,372.2 L101.3,372.2 M575.0,372.2 L570.5,372.2"/></g><g style="fill:none;color:gray;stroke:currentColor;stroke-width:1;stroke-linecap:butt;stroke-linejoin:miter"><path d="M96.8,355.4 L575.0,355.4"/></g><g style="fill:none;color:#000;stroke:currentColor;stroke-width:1;stroke-linecap:butt;stroke-linejoin:miter"><path d="M96.8,355.4 L105.8,355.4 M575.0,355.4 L566.0,355.4"/><g style="stroke:none;fill:#000;font-family:Arial;font-size:12pt;text-anchor:end"><text transform="translate(88.5,359.9)">1e-18</text></g></g><g style="fill:none;color:gray;stroke:currentColor;stroke-width:1;stroke-linecap:butt;stroke-linejoin:miter"><path d="M96.8,338.7 L575.0,338.7"/></g><g style="fill:none;color:#000;stroke:currentColor;stroke-width:1;stroke-linecap:butt;stroke-linejoin:miter"><path d="M96.8,338.7 L101.3,338.7 M575.0,338.7 L570.5,338.7"/></g><g style="fill:none;color:gray;stroke:currentColor;stroke-width:1;stroke-linecap:butt;stroke-linejoin:miter"><path d="M96.8,322.0 L575.0,322.0"/></g><g style="fill:none;color:#000;stroke:currentColor;stroke-width:1;stroke-linecap:butt;stroke-linejoin:miter"><path d="M96.8,322.0 L105.8,322.0 M575.0,322.0 L566.0,322.0"/><g style="stroke:none;fill:#000;font-family:Arial;font-size:12pt;text-anchor:end"><text transform="translate(88.5,326.5)">1e-16</text></g></g><g style="fill:none;color:gray;stroke:currentColor;stroke-width:1;stroke-linecap:butt;stroke-linejoin:miter"><path d="M96.8,305.2 L575.0,305.2"/></g><g style="fill:none;color:#000;stroke:currentColor;stroke-width:1;stroke-linecap:butt;stroke-linejoin:miter"><path d="M96.8,305.2 L101.3,305.2 M575.0,305.2 L570.5,305.2"/></g><g style="fill:none;color:gray;stroke:currentColor;stroke-width:1;stroke-linecap:butt;stroke-linejoin:miter"><path d="M96.8,288.5 L575.0,288.5"/></g><g style="fill:none;color:#000;stroke:currentColor;stroke-width:1;stroke-linecap:butt;stroke-linejoin:miter"><path d="M96.8,288.5 L105.8,288.5 M575.0,288.5 L566.0,288.5"/><g style="stroke:none;fill:#000;font-family:Arial;font-size:12pt;text-anchor:end"><text transform="translate(88.5,293.0)">1e-14</text></g></g><g style="fill:none;color:gray;stroke:currentColor;stroke-width:1;stroke-linecap:butt;stroke-linejoin:miter"><path d="M96.8,271.7 L575.0,271.7"/></g><g style="fill:none;color:#000;stroke:currentColor;stroke-width:1;stroke-linecap:butt;stroke-linejoin:miter"><path d="M96.8,271.7 L101.3,271.7 M575.0,271.7 L570.5,271.7"/></g><g style="fill:none;color:gray;stroke:currentColor;stroke-width:1;stroke-linecap:butt;stroke-linejoin:miter"><path d="M96.8,255.0 L575.0,255.0"/></g><g style="fill:none;color:#000;stroke:currentColor;stroke-width:1;stroke-linecap:butt;stroke-linejoin:miter"><path d="M96.8,255.0 L105.8,255.0 M575.0,255.0 L566.0,255.0"/><g style="stroke:none;fill:#000;font-family:Arial;font-size:12pt;text-anchor:end"><text transform="translate(88.5,259.5)">1e-12</text></g></g><g style="fill:none;color:gray;stroke:currentColor;stroke-width:1;stroke-linecap:butt;stroke-linejoin:miter"><path d="M96.8,238.2 L575.0,238.2"/></g><g style="fill:none;color:#000;stroke:currentColor;stroke-width:1;stroke-linecap:butt;stroke-linejoin:miter"><path d="M96.8,238.2 L101.3,238.2 M575.0,238.2 L570.5,238.2"/></g><g style="fill:none;color:gray;stroke:currentColor;stroke-width:1;stroke-linecap:butt;stroke-linejoin:miter"><path d="M96.8,221.5 L575.0,221.5"/></g><g style="fill:none;color:#000;stroke:currentColor;stroke-width:1;stroke-linecap:butt;stroke-linejoin:miter"><path d="M96.8,221.5 L105.8,221.5 M575.0,221.5 L566.0,221.5"/><g style="stroke:none;fill:#000;font-family:Arial;font-size:12pt;text-anchor:end"><text transform="translate(88.5,226.0)">1e-10</text></g></g><g style="fill:none;color:gray;stroke:currentColor;stroke-width:1;stroke-linecap:butt;stroke-linejoin:miter"><path d="M96.8,204.8 L575.0,204.8"/></g><g style="fill:none;color:#000;stroke:currentColor;stroke-width:1;stroke-linecap:butt;stroke-linejoin:miter"><path d="M96.8,204.8 L101.3,204.8 M575.0,204.8 L570.5,204.8"/></g><g style="fill:none;color:gray;stroke:currentColor;stroke-width:1;stroke-linecap:butt;stroke-linejoin:miter"><path d="M96.8,188.0 L575.0,188.0"/></g><g style="fill:none;color:#000;stroke:currentColor;stroke-width:1;stroke-linecap:butt;stroke-linejoin:miter"><path d="M96.8,188.0 L105.8,188.0 M575.0,188.0 L566.0,188.0"/><g style="stroke:none;fill:#000;font-family:Arial;font-size:12pt;text-anchor:end"><text transform="translate(88.5,192.5)">1e-08</text></g></g><g style="fill:none;color:gray;stroke:currentColor;stroke-width:1;stroke-linecap:butt;stroke-linejoin:miter"><path d="M96.8,171.3 L575.0,171.3"/></g><g style="fill:none;color:#000;stroke:currentColor;stroke-width:1;stroke-linecap:butt;stroke-linejoin:miter"><path d="M96.8,171.3 L101.3,171.3 M575.0,171.3 L570.5,171.3"/></g><g style="fill:none;color:gray;stroke:currentColor;stroke-width:1;stroke-linecap:butt;stroke-linejoin:miter"><path d="M96.8,154.5 L575.0,154.5"/></g><g style="fill:none;color:#000;stroke:currentColor;stroke-width:1;stroke-linecap:butt;stroke-linejoin:miter"><path d="M96.8,154.5 L105.8,154.5 M575.0,154.5 L566.0,154.5"/><g style="stroke:none;fill:#000;font-family:Arial;font-size:12pt;text-anchor:end"><text transform="translate(88.5,159.0)">1e-06</text></g></g><g style="fill:none;color:gray;stroke:currentColor;stroke-width:1;stroke-linecap:butt;stroke-linejoin:miter"><path d="M96.8,137.8 L575.0,137.8"/></g><g style="fill:none;color:#000;stroke:currentColor;stroke-width:1;stroke-linecap:butt;stroke-linejoin:miter"><path d="M96.8,137.8 L101.3,137.8 M575.0,137.8 L570.5,137.8"/></g><g style="fill:none;color:gray;stroke:currentColor;stroke-width:1;stroke-linecap:butt;stroke-linejoin:miter"><path d="M96.8,121.1 L575.0,121.1"/></g><g style="fill:none;color:#000;stroke:currentColor;stroke-width:1;stroke-linecap:butt;stroke-linejoin:miter"><path d="M96.8,121.1 L105.8,121.1 M575.0,121.1 L566.0,121.1"/><g style="stroke:none;fill:#000;font-family:Arial;font-size:12pt;text-anchor:end"><text transform="translate(88.5,125.6)">0.0001</text></g></g><g style="fill:none;color:gray;stroke:currentColor;stroke-width:1;stroke-linecap:butt;stroke-linejoin:miter"><path d="M96.8,104.3 L575.0,104.3"/></g><g style="fill:none;color:#000;stroke:currentColor;stroke-width:1;stroke-linecap:butt;stroke-linejoin:miter"><path d="M96.8,104.3 L101.3,104.3 M575.0,104.3 L570.5,104.3"/></g><g style="fill:none;color:gray;stroke:currentColor;stroke-width:1;stroke-linecap:butt;stroke-linejoin:miter"><path d="M96.8,87.6 L575.0,87.6"/></g><g style="fill:none;color:#000;stroke:currentColor;stroke-width:1;stroke-linecap:butt;stroke-linejoin:miter"><path d="M96.8,87.6 L105.8,87.6 M575.0,87.6 L566.0,87.6"/><g style="stroke:none;fill:#000;font-family:Arial;font-size:12pt;text-anchor:end"><text transform="translate(88.5,92.1)">0.01</text></g></g><g style="fill:none;color:gray;stroke:currentColor;stroke-width:1;stroke-linecap:butt;stroke-linejoin:miter"><path d="M96.8,70.8 L575.0,70.8"/></g><g style="fill:none;color:#000;stroke:currentColor;stroke-width:1;stroke-linecap:butt;stroke-linejoin:miter"><path d="M96.8,70.8 L101.3,70.8 M575.0,70.8 L570.5,70.8"/></g><g style="fill:none;color:gray;stroke:currentColor;stroke-width:1;stroke-linecap:butt;stroke-linejoin:miter"><path d="M96.8,54.1 L575.0,54.1"/></g><g style="fill:none;color:#000;stroke:currentColor;stroke-width:1;stroke-linecap:butt;stroke-linejoin:miter"><path d="M96.8,54.1 L105.8,54.1 M575.0,54.1 L566.0,54.1"/><g style="stroke:none;fill:#000;font-family:Arial;font-size:12pt;text-anchor:end"><text transform="translate(88.5,58.6)">1</text></g><path d="M96.8,422.4 L96.8,413.4 M96.8,54.1 L96.8,63.1"/><g style="stroke:none;fill:#000;font-family:Arial;font-size:12pt;text-anchor:middle"><text transform="translate(96.8,444.9)">0</text></g><path d="M176.5,422.4 L176.5,413.4 M176.5,54.1 L176.5,63.1"/><g style="stroke:none;fill:#000;font-family:Arial;font-size:12pt;text-anchor:middle"><text transform="translate(176.5,444.9)">100</text></g><path d="M256.2,422.4 L256.2,413.4 M256.2,54.1 L256.2,63.1"/><g style="stroke:none;fill:#000;font-family:Arial;font-size:12pt;text-anchor:middle"><text transform="translate(256.2,444.9)">200</text></g><path d="M335.9,422.4 L335.9,413.4 M335.9,54.1 L335.9,63.1"/><g style="stroke:none;fill:#000;font-family:Arial;font-size:12pt;text-anchor:middle"><text transform="translate(335.9,444.9)">300</text></g><path d="M415.6,422.4 L415.6,413.4 M415.6,54.1 L415.6,63.1"/><g style="stroke:none;fill:#000;font-family:Arial;font-size:12pt;text-anchor:middle"><text transform="translate(415.6,444.9)">400</text></g><path d="M495.3,422.4 L495.3,413.4 M495.3,54.1 L495.3,63.1"/><g style="stroke:none;fill:#000;font-family:Arial;font-size:12pt;text-anchor:middle"><text transform="translate(495.3,444.9)">500</text></g><path d="M575.0,422.4 L575.0,413.4 M575.0,54.1 L575.0,63.1"/><g style="stroke:none;fill:#000;font-family:Arial;font-size:12pt;text-anchor:middle"><text transform="translate(575.0,444.9)">600</text></g><path d="M96.8,54.1 L96.8,422.4 L575.0,422.4 L575.0,54.1 L96.8,54.1 Z"/><g style="stroke:none;fill:#000;font-family:Arial;font-size:12pt;text-anchor:middle"><text transform="translate(17.6,238.3) rotate(270)">Objective function value</text></g><g style="stroke:none;fill:#000;font-family:Arial;font-size:12pt;text-anchor:middle"><text transform="translate(335.9,471.9)">Objective function evaluations</text></g><g style="stroke:none;fill:#000;font-family:Arial;font-size:12pt;text-anchor:middle"><text transform="translate(335.9,31.6)">CMA on Sphere, n = 2</text></g></g><a xlink:title="Plot #1"><g style="fill:none;color:red;stroke:currentColor;stroke-width:1;stroke-linecap:butt;stroke-linejoin:miter"><path d="M104.8,59.1 L108.8,65.1 L112.7,70.6 L116.7,91.2 L120.7,87.7 L124.7,76.8 L128.7,101.4 L132.7,97.6 L136.7,86.4 L140.6,82.3 L144.6,99.6 L148.6,88.9 L152.6,92.4 L156.6,100.7 L160.6,103.3 L164.5,108.4 L168.5,107.6 L172.5,107.9 L176.5,131.9 L180.5,110.3 L184.5,122.5 L188.5,121.1 L192.4,126.7 L196.4,131.2 L200.4,121.8 L204.4,128.1 L208.4,130.9 L212.4,133.1 L216.4,131.6 L220.3,161.9 L224.3,136.8 L228.3,130.6 L232.3,155.9 L236.3,165.5 L240.3,149.6 L244.2,164.2 L248.2,169.6 L252.2,181.1 L256.2,166.6 L260.2,166.9 L264.2,179.7 L268.2,191.2 L272.1,188.7 L276.1,182.3 L280.1,180.8 L284.1,191.9 L288.1,196.3 L292.1,194.1 L296.1,200.9 L300.0,193.7 L304.0,193.0 L308.0,210.0 L312.0,211.0 L316.0,218.2 L320.0,210.2 L323.9,214.5 L327.9,210.6 L331.9,232.5 L335.9,253.8 L339.9,230.8 L343.9,240.6 L347.9,240.6 L351.8,238.6 L355.8,241.4 L359.8,240.8 L363.8,251.2 L367.8,257.8 L371.8,251.1 L375.8,270.5 L379.7,280.5 L383.7,269.3 L387.7,273.2 L391.7,272.5 L395.7,267.5 L399.7,275.0 L403.6,294.9 L407.6,292.4 L411.6,290.3 L415.6,311.7 L419.6,332.4 L423.6,296.4 L427.6,299.6 L431.5,297.2 L435.5,313.8 L439.5,305.6 L443.5,312.3 L447.5,325.0 L451.5,343.9 L455.5,315.4 L459.4,313.7 L463.4,323.5 L467.4,331.6 L471.4,331.2 L475.4,335.9 L479.4,338.6 L483.3,338.8 L487.3,356.2 L491.3,344.9 L495.3,346.1 L499.3,344.4 L503.3,357.8 L507.3,356.6 L511.2,352.9 L515.2,357.7 L519.2,367.4 L523.2,367.5 L527.2,372.5 L531.2,367.7 L535.2,388.3 L539.1,393.1"/><use transform="translate(104.8,59.1) scale(4.50)" xlink:href="#gpPt0"/><use transform="translate(108.8,65.1) scale(4.50)" xlink:href="#gpPt0"/><use transform="translate(112.7,70.6) scale(4.50)" xlink:href="#gpPt0"/><use transform="translate(116.7,91.2) scale(4.50)" xlink:href="#gpPt0"/><use transform="translate(120.7,87.7) scale(4.50)" xlink:href="#gpPt0"/><use transform="translate(124.7,76.8) scale(4.50)" xlink:href="#gpPt0"/><use transform="translate(128.7,101.4) scale(4.50)" xlink:href="#gpPt0"/><use transform="translate(132.7,97.6) scale(4.50)" xlink:href="#gpPt0"/><use transform="translate(136.7,86.4) scale(4.50)" xlink:href="#gpPt0"/><use transform="translate(140.6,82.3) scale(4.50)" xlink:href="#gpPt0"/><use transform="translate(144.6,99.6) scale(4.50)" xlink:href="#gpPt0"/><use transform="translate(148.6,88.9) scale(4.50)" xlink:href="#gpPt0"/><use transform="translate(152.6,92.4) scale(4.50)" xlink:href="#gpPt0"/><use transform="translate(156.6,100.7) scale(4.50)" xlink:href="#gpPt0"/><use transform="translate(160.6,103.3) scale(4.50)" xlink:href="#gpPt0"/><use transform="translate(164.5,108.4) scale(4.50)" xlink:href="#gpPt0"/><use transform="translate(168.5,107.6) scale(4.50)" xlink:href="#gpPt0"/><use transform="translate(172.5,107.9) scale(4.50)" xlink:href="#gpPt0"/><use transform="translate(176.5,131.9) scale(4.50)" xlink:href="#gpPt0"/><use transform="translate(180.5,110.3) scale(4.50)" xlink:href="#gpPt0"/><use transform="translate(184.5,122.5) scale(4.50)" xlink:href="#gpPt0"/><use transform="translate(188.5,121.1) scale(4.50)" xlink:href="#gpPt0"/><use transform="translate(192.4,126.7) scale(4.50)" xlink:href="#gpPt0"/><use transform="translate(196.4,131.2) scale(4.50)" xlink:href="#gpPt0"/><use transform="translate(200.4,121.8) scale(4.50)" xlink:href="#gpPt0"/><use transform="translate(204.4,128.1) scale(4.50)" xlink:href="#gpPt0"/><use transform="translate(208.4,130.9) scale(4.50)" xlink:href="#gpPt0"/><use transform="translate(212.4,133.1) scale(4.50)" xlink:href="#gpPt0"/><use transform="translate(216.4,131.6) scale(4.50)" xlink:href="#gpPt0"/><use transform="translate(220.3,161.9) scale(4.50)" xlink:href="#gpPt0"/><use transform="translate(224.3,136.8) scale(4.50)" xlink:href="#gpPt0"/><use transform="translate(228.3,130.6) scale(4.50)" xlink:href="#gpPt0"/><use transform="translate(232.3,155.9) scale(4.50)" xlink:href="#gpPt0"/><use transform="translate(236.3,165.5) scale(4.50)" xlink:href="#gpPt0"/><use transform="translate(240.3,149.6) scale(4.50)" xlink:href="#gpPt0"/><use transform="translate(244.2,164.2) scale(4.50)" xlink:href="#gpPt0"/><use transform="translate(248.2,169.6) scale(4.50)" xlink:href="#gpPt0"/><use transform="translate(252.2,181.1) scale(4.50)" xlink:href="#gpPt0"/><use transform="translate(256.2,166.6) scale(4.50)" xlink:href="#gpPt0"/><use transform="translate(260.2,166.9) scale(4.50)" xlink:href="#gpPt0"/><use transform="translate(264.2,179.7) scale(4.50)" xlink:href="#gpPt0"/><use transform="translate(268.2,191.2) scale(4.50)" xlink:href="#gpPt0"/><use transform="translate(272.1,188.7) scale(4.50)" xlink:href="#gpPt0"/><use transform="translate(276.1,182.3) scale(4.50)" xlink:href="#gpPt0"/><use transform="translate(280.1,180.8) scale(4.50)" xlink:href="#gpPt0"/><use transform="translate(284.1,191.9) scale(4.50)" xlink:href="#gpPt0"/><use transform="translate(288.1,196.3) scale(4.50)" xlink:href="#gpPt0"/><use transform="translate(292.1,194.1) scale(4.50)" xlink:href="#gpPt0"/><use transform="translate(296.1,200.9) scale(4.50)" xlink:href="#gpPt0"/><use transform="translate(300.0,193.7) scale(4.50)" xlink:href="#gpPt0"/><use transform="translate(304.0,193.0) scale(4.50)" xlink:href="#gpPt0"/><use transform="translate(308.0,210.0) scale(4.50)" xlink:href="#gpPt0"/><use transform="translate(312.0,211.0) scale(4.50)" xlink:href="#gpPt0"/><use transform="translate(316.0,218.2) scale(4.50)" xlink:href="#gpPt0"/><use transform="translate(320.0,210.2) scale(4.50)" xlink:href="#gpPt0"/><use transform="translate(323.9,214.5) scale(4.50)" xlink:href="#gpPt0"/><use transform="translate(327.9,210.6) scale(4.50)" xlink:href="#gpPt0"/><use transform="translate(331.9,232.5) scale(4.50)" xlink:href="#gpPt0"/><use transform="translate(335.9,253.8) scale(4.50)" xlink:href="#gpPt0"/><use transform="translate(339.9,230.8) scale(4.50)" xlink:href="#gpPt0"/><use transform="translate(343.9,240.6) scale(4.50)" xlink:href="#gpPt0"/><use transform="translate(347.9,240.6) scale(4.50)" xlink:href="#gpPt0"/><use transform="translate(351.8,238.6) scale(4.50)" xlink:href="#gpPt0"/><use transform="translate(355.8,241.4) scale(4.50)" xlink:href="#gpPt0"/><use transform="translate(359.8,240.8) scale(4.50)" xlink:href="#gpPt0"/><use transform="translate(363.8,251.2) scale(4.50)" xlink:href="#gpPt0"/><use transform="translate(367.8,257.8) scale(4.50)" xlink:href="#gpPt0"/><use transform="translate(371.8,251.1) scale(4.50)" xlink:href="#gpPt0"/><use transform="translate(375.8,270.5) scale(4.50)" xlink:href="#gpPt0"/><use transform="translate(379.7,280.5) scale(4.50)" xlink:href="#gpPt0"/><use transform="translate(383.7,269.3) scale(4.50)" xlink:href="#gpPt0"/><use transform="translate(387.7,273.2) scale(4.50)" xlink:href="#gpPt0"/><use transform="translate(391.7,272.5) scale(4.50)" xlink:href="#gpPt0"/><use transform="translate(395.7,267.5) scale(4.50)" xlink:href="#gpPt0"/><use transform="translate(399.7,275.0) scale(4.50)" xlink:href="#gpPt0"/><use transform="translate(403.6,294.9) scale(4.50)" xlink:href="#gpPt0"/><use transform="translate(407.6,292.4) scale(4.50)" xlink:href="#gpPt0"/><use transform="translate(411.6,290.3) scale(4.50)" xlink:href="#gpPt0"/><use transform="translate(415.6,311.7) scale(4.50)" xlink:href="#gpPt0"/><use transform="translate(419.6,332.4) scale(4.50)" xlink:href="#gpPt0"/><use transform="translate(423.6,296.4) scale(4.50)" xlink:href="#gpPt0"/><use transform="translate(427.6,299.6) scale(4.50)" xlink:href="#gpPt0"/><use transform="translate(431.5,297.2) scale(4.50)" xlink:href="#gpPt0"/><use transform="translate(435.5,313.8) scale(4.50)" xlink:href="#gpPt0"/><use transform="translate(439.5,305.6) scale(4.50)" xlink:href="#gpPt0"/><use transform="translate(443.5,312.3) scale(4.50)" xlink:href="#gpPt0"/><use transform="translate(447.5,325.0) scale(4.50)" xlink:href="#gpPt0"/><use transform="translate(451.5,343.9) scale(4.50)" xlink:href="#gpPt0"/><use transform="translate(455.5,315.4) scale(4.50)" xlink:href="#gpPt0"/><use transform="translate(459.4,313.7) scale(4.50)" xlink:href="#gpPt0"/><use transform="translate(463.4,323.5) scale(4.50)" xlink:href="#gpPt0"/><use transform="translate(467.4,331.6) scale(4.50)" xlink:href="#gpPt0"/><use transform="translate(471.4,331.2) scale(4.50)" xlink:href="#gpPt0"/><use transform="translate(475.4,335.9) scale(4.50)" xlink:href="#gpPt0"/><use transform="translate(479.4,338.6) scale(4.50)" xlink:href="#gpPt0"/><use transform="translate(483.3,338.8) scale(4.50)" xlink:href="#gpPt0"/><use transform="translate(487.3,356.2) scale(4.50)" xlink:href="#gpPt0"/><use transform="translate(491.3,344.9) scale(4.50)" xlink:href="#gpPt0"/><use transform="translate(495.3,346.1) scale(4.50)" xlink:href="#gpPt0"/><use transform="translate(499.3,344.4) scale(4.50)" xlink:href="#gpPt0"/><use transform="translate(503.3,357.8) scale(4.50)" xlink:href="#gpPt0"/><use transform="translate(507.3,356.6) scale(4.50)" xlink:href="#gpPt0"/><use transform="translate(511.2,352.9) scale(4.50)" xlink:href="#gpPt0"/><use transform="translate(515.2,357.7) scale(4.50)" xlink:href="#gpPt0"/><use transform="translate(519.2,367.4) scale(4.50)" xlink:href="#gpPt0"/><use transform="translate(523.2,367.5) scale(4.50)" xlink:href="#gpPt0"/><use transform="translate(527.2,372.5) scale(4.50)" xlink:href="#gpPt0"/><use transform="translate(531.2,367.7) scale(4.50)" xlink:href="#gpPt0"/><use transform="translate(535.2,388.3) scale(4.50)" xlink:href="#gpPt0"/><use transform="translate(539.1,393.1) scale(4.50)" xlink:href="#gpPt0"/></g></a><g style="fill:none;color:#000;stroke:currentColor;stroke-width:1;stroke-linecap:butt;stroke-linejoin:miter"><path d="M96.8,54.1 L96.8,422.4 L575.0,422.4 L575.0,54.1 L96.8,54.1 Z"/></g></svg>