<svg xmlns="http://www.w3.org/2000/svg" xmlns:xlink="http://www.w3.org/1999/xlink" width="600" height="480" viewBox="0 0 600 480"><desc>Produced by GNUPLOT 4.4 patchlevel 3</desc><defs><circle id="gpDot" r=".5" stroke-width=".5"/><path id="gpPt0" stroke="currentColor" stroke-width=".222" d="M-1,0 h2 M0,-1 v2"/><path id="gpPt1" stroke="currentColor" stroke-width=".222" d="M-1,-1 L1,1 M1,-1 L-1,1"/><path id="gpPt2" stroke="currentColor" stroke-width=".222" d="M-1,0 L1,0 M0,-1 L0,1 M-1,-1 L1,1 M-1,1 L1,-1"/><rect id="gpPt3" width="2" height="2" x="-1" y="-1" stroke="currentColor" stroke-width=".222"/><rect id="gpPt4" width="2" height="2" x="-1" y="-1" fill="currentColor" stroke="currentColor" stroke-width=".222"/><circle id="gpPt5" cx="0" cy="0" r="1" stroke="currentColor" stroke-width=".222"/><use id="gpPt6" fill="currentColor" stroke="none" xlink:href="#gpPt5"/><path id="gpPt7" stroke="currentColor" stroke-width=".222" d="M0,-1.33 L-1.33,0.67 L1.33,0.67 z"/><use id="gpPt8" fill="currentColor" stroke="none" xlink:href="#gpPt7"/><use id="gpPt9" stroke="currentColor" transform="rotate(180)" xlink:href="#gpPt7"/><use id="gpPt10" fill="currentColor" stroke="none" xlink:href="#gpPt9"/><use id="gpPt11" stroke="currentColor" transform="rotate(45)" xlink:href="#gpPt3"/><use id="gpPt12" fill="currentColor" stroke="none" xlink:href="#gpPt11"/></defs><g style="fill:none;color:gray;stroke:currentColor;stroke-width:1;stroke-linecap:butt;stroke-linejoin:miter"><path d="M71.9,422.4 L575.0,422.4"/></g><g style="fill:none;color:#000;stroke:currentColor;stroke-width:1;stroke-linecap:butt;stroke-linejoin:miter"><path d="M71.9,422.4 L80.9,422.4 M575.0,422.4 L566.0,422.4"/><g style="stroke:none;fill:#000;font-family:Arial;font-size:12pt;text-anchor:end"><text transform="translate(63.6,426.9)">0</text></g></g><g style="fill:none;color:gray;stroke:currentColor;stroke-width:1;stroke-linecap:butt;stroke-linejoin:miter"><path d="M71.9,348.7 L575.0,348.7"/></g><g style="fill:none;color:#000;stroke:currentColor;stroke-width:1;stroke-linecap:butt;stroke-linejoin:miter"><path d="M71.9,348.7 L80.9,348.7 M575.0,348.7 L566.0,348.7"/><g style="stroke:none;fill:#000;font-family:Arial;font-size:12pt;text-anchor:end"><text transform="translate(63.6,353.2)">0.2</text></g></g><g style="fill:none;color:gray;stroke:currentColor;stroke-width:1;stroke-linecap:butt;stroke-linejoin:miter"><path d="M71.9,275.1 L575.0,275.1"/></g><g style="fill:none;color:#000;stroke:currentColor;stroke-width:1;stroke-linecap:butt;stroke-linejoin:miter"><path d="M71.9,275.1 L80.9,275.1 M575.0,275.1 L566.0,275.1"/><g style="stroke:none;fill:#000;font-family:Arial;font-size:12pt;text-anchor:end"><text transform="translate(63.6,279.6)">0.4</text></g></g><g style="fill:none;color:gray;stroke:currentColor;stroke-width:1;stroke-linecap:butt;stroke-linejoin:miter"><path d="M71.9,201.4 L575.0,201.4"/></g><g style="fill:none;color:#000;stroke:currentColor;stroke-width:1;stroke-linecap:butt;stroke-linejoin:miter"><path d="M71.9,201.4 L80.9,201.4 M575.0,201.4 L566.0,201.4"/><g style="stroke:none;fill:#000;font-family:Arial;font-size:12pt;text-anchor:end"><text transform="translate(63.6,205.9)">0.6</text></g></g><g style="fill:none;color:gray;stroke:currentColor;stroke-width:1;stroke-linecap:butt;stroke-linejoin:miter"><path d="M71.9,127.8 L575.0,127.8"/></g><g style="fill:none;color:#000;stroke:currentColor;stroke-width:1;stroke-linecap:butt;stroke-linejoin:miter"><path d="M71.9,127.8 L80.9,127.8 M575.0,127.8 L566.0,127.8"/><g style="stroke:none;fill:#000;font-family:Arial;font-size:12pt;text-anchor:end"><text transform="translate(63.6,132.3)">0.8</text></g></g><g style="fill:none;color:gray;stroke:currentColor;stroke-width:1;stroke-linecap:butt;stroke-linejoin:miter"><path d="M71.9,54.1 L575.0,54.1"/></g><g style="fill:none;color:#000;stroke:currentColor;stroke-width:1;stroke-linecap:butt;stroke-linejoin:miter"><path d="M71.9,54.1 L80.9,54.1 M575.0,54.1 L566.0,54.1"/><g style="stroke:none;fill:#000;font-family:Arial;font-size:12pt;text-anchor:end"><text transform="translate(63.6,58.6)">1</text></g></g><g style="fill:none;color:gray;stroke:currentColor;stroke-width:1;stroke-linecap:butt;stroke-linejoin:miter"><path d="M71.9,422.4 L71.9,54.1"/></g><g style="fill:none;color:#000;stroke:currentColor;stroke-width:1;stroke-linecap:butt;stroke-linejoin:miter"><path d="M71.9,422.4 L71.9,413.4 M71.9,54.1 L71.9,63.1"/><g style="stroke:none;fill:#000;font-family:Arial;font-size:12pt;text-anchor:middle"><text transform="translate(71.9,444.9)">0</text></g></g><g style="fill:none;color:gray;stroke:currentColor;stroke-width:1;stroke-linecap:butt;stroke-linejoin:miter"><path d="M155.8,422.4 L155.8,54.1"/></g><g style="fill:none;color:#000;stroke:currentColor;stroke-width:1;stroke-linecap:butt;stroke-linejoin:miter"><path d="M155.8,422.4 L155.8,413.4 M155.8,54.1 L155.8,63.1"/><g style="stroke:none;fill:#000;font-family:Arial;font-size:12pt;text-anchor:middle"><text transform="translate(155.8,444.9)">0.2</text></g></g><g style="fill:none;color:gray;stroke:currentColor;stroke-width:1;stroke-linecap:butt;stroke-linejoin:miter"><path d="M239.6,422.4 L239.6,54.1"/></g><g style="fill:none;color:#000;stroke:currentColor;stroke-width:1;stroke-linecap:butt;stroke-linejoin:miter"><path d="M239.6,422.4 L239.6,413.4 M239.6,54.1 L239.6,63.1"/><g style="stroke:none;fill:#000;font-family:Arial;font-size:12pt;text-anchor:middle"><text transform="translate(239.6,444.9)">0.4</text></g></g><g style="fill:none;color:gray;stroke:currentColor;stroke-width:1;stroke-linecap:butt;stroke-linejoin:miter"><path d="M323.5,422.4 L323.5,54.1"/></g><g style="fill:none;color:#000;stroke:currentColor;stroke-width:1;stroke-linecap:butt;stroke-linejoin:miter"><path d="M323.5,422.4 L323.5,413.4 M323.5,54.1 L323.5,63.1"/><g style="stroke:none;fill:#000;font-family:Arial;font-size:12pt;text-anchor:middle"><text transform="translate(323.5,444.9)">0.6</text></g></g><g style="fill:none;color:gray;stroke:currentColor;stroke-width:1;stroke-linecap:butt;stroke-linejoin:miter"><path d="M407.3,422.4 L407.3,54.1"/></g><g style="fill:none;color:#000;stroke:currentColor;stroke-width:1;stroke-linecap:butt;stroke-linejoin:miter"><path d="M407.3,422.4 L407.3,413.4 M407.3,54.1 L407.3,63.1"/><g style="stroke:none;fill:#000;font-family:Arial;font-size:12pt;text-anchor:middle"><text transform="translate(407.3,444.9)">0.8</text></g></g><g style="fill:none;color:gray;stroke:currentColor;stroke-width:1;stroke-linecap:butt;stroke-linejoin:miter"><path d="M491.1,422.4 L491.1,54.1"/></g><g style="fill:none;color:#000;stroke:currentColor;stroke-width:1;stroke-linecap:butt;stroke-linejoin:miter"><path d="M491.1,422.4 L491.1,413.4 M491.1,54.1 L491.1,63.1"/><g style="stroke:none;fill:#000;font-family:Arial;font-size:12pt;text-anchor:middle"><text transform="translate(491.1,444.9)">1</text></g></g><g style="fill:none;color:gray;stroke:currentColor;stroke-width:1;stroke-linecap:butt;stroke-linejoin:miter"><path d="M575.0,422.4 L575.0,54.1"/></g><g style="fill:none;color:#000;stroke:currentColor;stroke-width:1;stroke-linecap:butt;stroke-linejoin:miter"><path d="M575.0,422.4 L575.0,413.4 M575.0,54.1 L575.0,63.1"/><g style="stroke:none;fill:#000;font-family:Arial;font-size:12pt;text-anchor:middle"><text transform="translate(575.0,444.9)">1.2</text></g><path d="M71.9,54.1 L71.9,422.4 L575.0,422.4 L575.0,54.1 L71.9,54.1 Z"/><g style="stroke:none;fill:#000;font-family:Arial;font-size:12pt;text-anchor:middle"><text transform="translate(17.6,238.3) rotate(270)">Second objective</text></g><g style="stroke:none;fill:#000;font-family:Arial;font-size:12pt;text-anchor:middle"><text transform="translate(323.4,471.9)">First objective</text></g><g style="stroke:none;fill:#000;font-family:Arial;font-size:12pt;text-anchor:middle"><text transform="translate(323.4,31.6)">MO-CMA-ES on DTLZ2, m=2, 25000 objective function evaluations</text></g></g><a xlink:title="Plot #1"><g style="fill:none;color:red;stroke:currentColor;stroke-width:1;stroke-linecap:butt;stroke-linejoin:miter"><use transform="translate(198.9,71.4) scale(4.50)" xlink:href="#gpPt0"/><use transform="translate(127.2,57.3) scale(4.50)" xlink:href="#gpPt0"/><use transform="translate(353.7,149.7) scale(4.50)" xlink:href="#gpPt0"/><use transform="translate(319.1,124.9) scale(4.50)" xlink:href="#gpPt0"/><use transform="translate(290.5,108.1) scale(4.50)" xlink:href="#gpPt0"/><use transform="translate(246.3,87.4) scale(4.50)" xlink:href="#gpPt0"/><use transform="translate(438.6,243.9) scale(4.50)" xlink:href="#gpPt0"/><use transform="translate(351.6,148.0) scale(4.50)" xlink:href="#gpPt0"/><use transform="translate(194.2,70.1) scale(4.50)" xlink:href="#gpPt0"/><use transform="translate(444.3,253.2) scale(4.50)" xlink:href="#gpPt0"/><use transform="translate(491.2,422.4) scale(4.50)" xlink:href="#gpPt0"/><use transform="translate(343.1,141.5) scale(4.50)" xlink:href="#gpPt0"/><use transform="translate(255.8,91.4) scale(4.50)" xlink:href="#gpPt0"/><use transform="translate(413.3,208.7) scale(4.50)" xlink:href="#gpPt0"/><use transform="translate(474.2,318.6) scale(4.50)" xlink:href="#gpPt0"/><use transform="translate(405.3,199.1) scale(4.50)" xlink:href="#gpPt0"/><use transform="translate(384.6,177.0) scale(4.50)" xlink:href="#gpPt0"/><use transform="translate(398.2,191.1) scale(4.50)" xlink:href="#gpPt0"/><use transform="translate(477.8,330.3) scale(4.50)" xlink:href="#gpPt0"/><use transform="translate(100.3,54.9) scale(4.50)" xlink:href="#gpPt0"/><use transform="translate(308.4,118.3) scale(4.50)" xlink:href="#gpPt0"/><use transform="translate(447.0,257.9) scale(4.50)" xlink:href="#gpPt0"/><use transform="translate(299.9,113.3) scale(4.50)" xlink:href="#gpPt0"/><use transform="translate(476.2,324.9) scale(4.50)" xlink:href="#gpPt0"/><use transform="translate(479.7,336.9) scale(4.50)" xlink:href="#gpPt0"/><use transform="translate(421.2,218.8) scale(4.50)" xlink:href="#gpPt0"/><use transform="translate(223.9,79.1) scale(4.50)" xlink:href="#gpPt0"/><use transform="translate(371.1,164.4) scale(4.50)" xlink:href="#gpPt0"/><use transform="translate(280.1,102.7) scale(4.50)" xlink:href="#gpPt0"/><use transform="translate(174.8,65.3) scale(4.50)" xlink:href="#gpPt0"/><use transform="translate(455.6,274.1) scale(4.50)" xlink:href="#gpPt0"/><use transform="translate(411.0,205.8) scale(4.50)" xlink:href="#gpPt0"/><use transform="translate(418.7,215.4) scale(4.50)" xlink:href="#gpPt0"/><use transform="translate(441.5,248.6) scale(4.50)" xlink:href="#gpPt0"/><use transform="translate(260.5,93.5) scale(4.50)" xlink:href="#gpPt0"/><use transform="translate(71.9,54.1) scale(4.50)" xlink:href="#gpPt0"/><use transform="translate(156.9,61.7) scale(4.50)" xlink:href="#gpPt0"/><use transform="translate(449.1,261.5) scale(4.50)" xlink:href="#gpPt0"/><use transform="translate(483.1,350.6) scale(4.50)" xlink:href="#gpPt0"/><use transform="translate(435.9,239.6) scale(4.50)" xlink:href="#gpPt0"/><use transform="translate(486.1,365.2) scale(4.50)" xlink:href="#gpPt0"/><use transform="translate(402.0,195.4) scale(4.50)" xlink:href="#gpPt0"/><use transform="translate(488.9,384.0) scale(4.50)" xlink:href="#gpPt0"/><use transform="translate(274.8,100.1) scale(4.50)" xlink:href="#gpPt0"/><use transform="translate(357.9,153.1) scale(4.50)" xlink:href="#gpPt0"/><use transform="translate(451.9,266.8) scale(4.50)" xlink:href="#gpPt0"/><use transform="translate(481.9,345.3) scale(4.50)" xlink:href="#gpPt0"/><use transform="translate(408.4,202.7) scale(4.50)" xlink:href="#gpPt0"/><use transform="translate(387.7,180.2) scale(4.50)" xlink:href="#gpPt0"/><use transform="translate(333.9,134.8) scale(4.50)" xlink:href="#gpPt0"/><use transform="translate(429.4,230.0) scale(4.50)" xlink:href="#gpPt0"/><use transform="translate(138.0,58.7) scale(4.50)" xlink:href="#gpPt0"/><use transform="translate(337.7,137.6) scale(4.50)" xlink:href="#gpPt0"/><use transform="translate(381.7,174.2) scale(4.50)" xlink:href="#gpPt0"/><use transform="translate(167.0,63.7) scale(4.50)" xlink:href="#gpPt0"/><use transform="translate(348.4,145.5) scale(4.50)" xlink:href="#gpPt0"/><use transform="translate(251.8,89.7) scale(4.50)" xlink:href="#gpPt0"/><use transform="translate(214.3,76.0) scale(4.50)" xlink:href="#gpPt0"/><use transform="translate(461.5,286.4) scale(4.50)" xlink:href="#gpPt0"/><use transform="translate(295.8,111.0) scale(4.50)" xlink:href="#gpPt0"/><use transform="translate(220.1,77.9) scale(4.50)" xlink:href="#gpPt0"/><use transform="translate(432.3,234.2) scale(4.50)" xlink:href="#gpPt0"/><use transform="translate(466.9,298.8) scale(4.50)" xlink:href="#gpPt0"/><use transform="translate(469.2,304.7) scale(4.50)" xlink:href="#gpPt0"/><use transform="translate(206.6,73.6) scale(4.50)" xlink:href="#gpPt0"/><use transform="translate(487.6,374.2) scale(4.50)" xlink:href="#gpPt0"/><use transform="translate(312.3,120.7) scale(4.50)" xlink:href="#gpPt0"/><use transform="translate(374.9,167.8) scale(4.50)" xlink:href="#gpPt0"/><use transform="translate(471.4,310.8) scale(4.50)" xlink:href="#gpPt0"/><use transform="translate(329.7,131.9) scale(4.50)" xlink:href="#gpPt0"/><use transform="translate(453.2,269.3) scale(4.50)" xlink:href="#gpPt0"/><use transform="translate(423.7,222.0) scale(4.50)" xlink:href="#gpPt0"/><use transform="translate(235.7,83.4) scale(4.50)" xlink:href="#gpPt0"/><use transform="translate(240.9,85.4) scale(4.50)" xlink:href="#gpPt0"/><use transform="translate(379.4,172.1) scale(4.50)" xlink:href="#gpPt0"/><use transform="translate(304.4,115.9) scale(4.50)" xlink:href="#gpPt0"/><use transform="translate(187.7,68.4) scale(4.50)" xlink:href="#gpPt0"/><use transform="translate(465.7,296.1) scale(4.50)" xlink:href="#gpPt0"/><use transform="translate(390.6,183.1) scale(4.50)" xlink:href="#gpPt0"/><use transform="translate(270.6,98.1) scale(4.50)" xlink:href="#gpPt0"/><use transform="translate(426.1,225.3) scale(4.50)" xlink:href="#gpPt0"/><use transform="translate(392.9,185.5) scale(4.50)" xlink:href="#gpPt0"/><use transform="translate(284.6,105.0) scale(4.50)" xlink:href="#gpPt0"/><use transform="translate(325.2,128.9) scale(4.50)" xlink:href="#gpPt0"/><use transform="translate(265.2,95.6) scale(4.50)" xlink:href="#gpPt0"/><use transform="translate(368.2,161.8) scale(4.50)" xlink:href="#gpPt0"/><use transform="translate(361.1,155.7) scale(4.50)" xlink:href="#gpPt0"/><use transform="translate(117.3,56.3) scale(4.50)" xlink:href="#gpPt0"/><use transform="translate(182.7,67.2) scale(4.50)" xlink:href="#gpPt0"/><use transform="translate(415.7,211.6) scale(4.50)" xlink:href="#gpPt0"/><use transform="translate(484.4,356.7) scale(4.50)" xlink:href="#gpPt0"/><use transform="translate(316.5,123.3) scale(4.50)" xlink:href="#gpPt0"/><use transform="translate(458.2,279.2) scale(4.50)" xlink:href="#gpPt0"/><use transform="translate(395.4,188.1) scale(4.50)" xlink:href="#gpPt0"/><use transform="translate(230.8,81.5) scale(4.50)" xlink:href="#gpPt0"/><use transform="translate(365.3,159.3) scale(4.50)" xlink:href="#gpPt0"/><use transform="translate(148.6,60.3) scale(4.50)" xlink:href="#gpPt0"/><use transform="translate(490.2,397.7) scale(4.50)" xlink:href="#gpPt0"/><use transform="translate(463.5,290.9) scale(4.50)" xlink:href="#gpPt0"/><use transform="translate(460.1,283.2) scale(4.50)" xlink:href="#gpPt0"/></g></a><g style="fill:none;color:#000;stroke:currentColor;stroke-width:1;stroke-linecap:butt;stroke-linejoin:miter"><path d="M71.9,54.1 L71.9,422.4 L575.0,422.4 L575.0,54.1 L71.9,54.1 Z"/></g></svg>