<svg xmlns="http://www.w3.org/2000/svg" xmlns:xlink="http://www.w3.org/1999/xlink" width="600" height="480" viewBox="0 0 600 480"><title>Gnuplot</title><desc>Produced by GNUPLOT 4.6 patchlevel 4</desc><g id="gnuplot_canvas"><rect width="600" height="480" x="0" y="0" fill="none"/><defs><circle id="gpDot" r=".5" stroke-width=".5"/><path id="gpPt0" stroke="currentColor" stroke-width=".222" d="M-1,0 h2 M0,-1 v2"/><path id="gpPt1" stroke="currentColor" stroke-width=".222" d="M-1,-1 L1,1 M1,-1 L-1,1"/><path id="gpPt2" stroke="currentColor" stroke-width=".222" d="M-1,0 L1,0 M0,-1 L0,1 M-1,-1 L1,1 M-1,1 L1,-1"/><rect id="gpPt3" width="2" height="2" x="-1" y="-1" stroke="currentColor" stroke-width=".222"/><rect id="gpPt4" width="2" height="2" x="-1" y="-1" fill="currentColor" stroke="currentColor" stroke-width=".222"/><circle id="gpPt5" cx="0" cy="0" r="1" stroke="currentColor" stroke-width=".222"/><use id="gpPt6" fill="currentColor" stroke="none" xlink:href="#gpPt5"/><path id="gpPt7" stroke="currentColor" stroke-width=".222" d="M0,-1.33 L-1.33,0.67 L1.33,0.67 z"/><use id="gpPt8" fill="currentColor" stroke="none" xlink:href="#gpPt7"/><use id="gpPt9" stroke="currentColor" transform="rotate(180)" xlink:href="#gpPt7"/><use id="gpPt10" fill="currentColor" stroke="none" xlink:href="#gpPt9"/><use id="gpPt11" stroke="currentColor" transform="rotate(45)" xlink:href="#gpPt3"/><use id="gpPt12" fill="currentColor" stroke="none" xlink:href="#gpPt11"/></defs><g style="fill:none;color:#000;stroke:currentColor;stroke-width:1;stroke-linecap:butt;stroke-linejoin:miter"><path stroke="#000" d="M71.9,422.4 L80.9,422.4 M575.0,422.4 L566.0,422.4 h0.01"/><g style="stroke:none;fill:#000;font-family:Arial;font-size:12pt;text-anchor:end"><text transform="translate(63.6,426.9)"><tspan>30</tspan></text></g><path stroke="#000" d="M71.9,381.8 L80.9,381.8 M575.0,381.8 L566.0,381.8 h0.01"/><g style="stroke:none;fill:#000;font-family:Arial;font-size:12pt;text-anchor:end"><text transform="translate(63.6,386.3)"><tspan>40</tspan></text></g><path stroke="#000" d="M71.9,341.3 L80.9,341.3 M575.0,341.3 L566.0,341.3 h0.01"/><g style="stroke:none;fill:#000;font-family:Arial;font-size:12pt;text-anchor:end"><text transform="translate(63.6,345.8)"><tspan>50</tspan></text></g><path stroke="#000" d="M71.9,300.7 L80.9,300.7 M575.0,300.7 L566.0,300.7 h0.01"/><g style="stroke:none;fill:#000;font-family:Arial;font-size:12pt;text-anchor:end"><text transform="translate(63.6,305.2)"><tspan>60</tspan></text></g><path stroke="#000" d="M71.9,260.1 L80.9,260.1 M575.0,260.1 L566.0,260.1 h0.01"/><g style="stroke:none;fill:#000;font-family:Arial;font-size:12pt;text-anchor:end"><text transform="translate(63.6,264.6)"><tspan>70</tspan></text></g><path stroke="#000" d="M71.9,219.5 L80.9,219.5 M575.0,219.5 L566.0,219.5 h0.01"/><g style="stroke:none;fill:#000;font-family:Arial;font-size:12pt;text-anchor:end"><text transform="translate(63.6,224.0)"><tspan>80</tspan></text></g><path stroke="#000" d="M71.9,179.0 L80.9,179.0 M575.0,179.0 L566.0,179.0 h0.01"/><g style="stroke:none;fill:#000;font-family:Arial;font-size:12pt;text-anchor:end"><text transform="translate(63.6,183.5)"><tspan>90</tspan></text></g><path stroke="#000" d="M71.9,138.4 L80.9,138.4 M575.0,138.4 L566.0,138.4 h0.01"/><g style="stroke:none;fill:#000;font-family:Arial;font-size:12pt;text-anchor:end"><text transform="translate(63.6,142.9)"><tspan>100</tspan></text></g><path stroke="#000" d="M71.9,97.8 L80.9,97.8 M575.0,97.8 L566.0,97.8 h0.01"/><g style="stroke:none;fill:#000;font-family:Arial;font-size:12pt;text-anchor:end"><text transform="translate(63.6,102.3)"><tspan>110</tspan></text></g><path stroke="#000" d="M71.9,57.3 L80.9,57.3 M575.0,57.3 L566.0,57.3 h0.01"/><g style="stroke:none;fill:#000;font-family:Arial;font-size:12pt;text-anchor:end"><text transform="translate(63.6,61.8)"><tspan>120</tspan></text></g><path stroke="#000" d="M71.9,16.7 L80.9,16.7 M575.0,16.7 L566.0,16.7 h0.01"/><g style="stroke:none;fill:#000;font-family:Arial;font-size:12pt;text-anchor:end"><text transform="translate(63.6,21.2)"><tspan>130</tspan></text></g><path stroke="#000" d="M71.9,422.4 L71.9,413.4 M71.9,16.7 L71.9,25.7 h0.01"/><g style="stroke:none;fill:#000;font-family:Arial;font-size:12pt;text-anchor:middle"><text transform="translate(71.9,444.9)"><tspan>0</tspan></text></g><path stroke="#000" d="M134.8,422.4 L134.8,413.4 M134.8,16.7 L134.8,25.7 h0.01"/><g style="stroke:none;fill:#000;font-family:Arial;font-size:12pt;text-anchor:middle"><text transform="translate(134.8,444.9)"><tspan>50</tspan></text></g><path stroke="#000" d="M197.7,422.4 L197.7,413.4 M197.7,16.7 L197.7,25.7 h0.01"/><g style="stroke:none;fill:#000;font-family:Arial;font-size:12pt;text-anchor:middle"><text transform="translate(197.7,444.9)"><tspan>100</tspan></text></g><path stroke="#000" d="M260.6,422.4 L260.6,413.4 M260.6,16.7 L260.6,25.7 h0.01"/><g style="stroke:none;fill:#000;font-family:Arial;font-size:12pt;text-anchor:middle"><text transform="translate(260.6,444.9)"><tspan>150</tspan></text></g><path stroke="#000" d="M323.5,422.4 L323.5,413.4 M323.5,16.7 L323.5,25.7 h0.01"/><g style="stroke:none;fill:#000;font-family:Arial;font-size:12pt;text-anchor:middle"><text transform="translate(323.5,444.9)"><tspan>200</tspan></text></g><path stroke="#000" d="M386.3,422.4 L386.3,413.4 M386.3,16.7 L386.3,25.7 h0.01"/><g style="stroke:none;fill:#000;font-family:Arial;font-size:12pt;text-anchor:middle"><text transform="translate(386.3,444.9)"><tspan>250</tspan></text></g><path stroke="#000" d="M449.2,422.4 L449.2,413.4 M449.2,16.7 L449.2,25.7 h0.01"/><g style="stroke:none;fill:#000;font-family:Arial;font-size:12pt;text-anchor:middle"><text transform="translate(449.2,444.9)"><tspan>300</tspan></text></g><path stroke="#000" d="M512.1,422.4 L512.1,413.4 M512.1,16.7 L512.1,25.7 h0.01"/><g style="stroke:none;fill:#000;font-family:Arial;font-size:12pt;text-anchor:middle"><text transform="translate(512.1,444.9)"><tspan>350</tspan></text></g><path stroke="#000" d="M575.0,422.4 L575.0,413.4 M575.0,16.7 L575.0,25.7 h0.01"/><g style="stroke:none;fill:#000;font-family:Arial;font-size:12pt;text-anchor:middle"><text transform="translate(575.0,444.9)"><tspan>400</tspan></text></g><path stroke="#000" d="M71.9,16.7 L71.9,422.4 L575.0,422.4 L575.0,16.7 L71.9,16.7 Z h0.01"/><g style="stroke:none;fill:#000;font-family:Arial;font-size:12pt;text-anchor:middle"><text transform="translate(17.6,219.6) rotate(270)"><tspan>hypervolume</tspan></text></g><g style="stroke:none;fill:#000;font-family:Arial;font-size:12pt;text-anchor:middle"><text transform="translate(323.4,471.9)"><tspan>iterations</tspan></text></g></g><g id="gnuplot_plot_1"><title>gnuplot_plot_1</title><g style="fill:none;color:red;stroke:currentColor;stroke-width:1;stroke-linecap:butt;stroke-linejoin:miter"><g style="stroke:none;fill:#000;font-family:Arial;font-size:12pt;text-anchor:end"><text transform="translate(507.9,39.2)"><tspan>ZDT1</tspan></text></g><path d="M516.2,34.7 L558.4,34.7 M71.9,180.8 L97.1,72.4 L122.2,59.4 L147.4,54.9 L172.5,54.8 L197.7,54.8 L222.8,54.8 L248.0,54.8 L273.1,54.8 L298.3,54.8 L323.5,54.8 L348.6,54.8 L373.8,54.8 L398.9,54.8 L424.1,54.8 L449.2,54.8 L474.4,54.8 L499.5,54.8 L524.7,54.8 L549.8,54.8 L575.0,54.8 h0.01"/></g></g><g id="gnuplot_plot_2"><title>gnuplot_plot_2</title><g style="fill:none;color:green;stroke:currentColor;stroke-width:1;stroke-linecap:butt;stroke-linejoin:miter"><g style="stroke:none;fill:#000;font-family:Arial;font-size:12pt;text-anchor:end"><text transform="translate(507.9,57.2)"><tspan>ZDT2</tspan></text></g><path d="M516.2,52.7 L558.4,52.7 M71.9,234.1 L97.1,78.7 L122.2,60.5 L147.4,57.0 L172.5,56.4 L197.7,56.1 L222.8,56.1 L248.0,56.1 L273.1,56.1 L298.3,56.1 L323.5,56.1 L348.6,56.1 L373.8,56.1 L398.9,56.1 L424.1,56.1 L449.2,56.1 L474.4,56.1 L499.5,56.1 L524.7,56.1 L549.8,56.1 L575.0,56.1 h0.01"/></g></g><g id="gnuplot_plot_3"><title>gnuplot_plot_3</title><g style="fill:none;color:#00f;stroke:currentColor;stroke-width:1;stroke-linecap:butt;stroke-linejoin:miter"><g style="stroke:none;fill:#000;font-family:Arial;font-size:12pt;text-anchor:end"><text transform="translate(507.9,75.2)"><tspan>ZDT3</tspan></text></g><path d="M516.2,70.7 L558.4,70.7 M71.9,170.9 L97.1,60.7 L122.2,46.0 L147.4,38.4 L172.5,31.1 L197.7,23.7 L222.8,22.2 L248.0,22.0 L273.1,21.8 L298.3,21.8 L323.5,21.8 L348.6,21.8 L373.8,21.8 L398.9,21.8 L424.1,21.8 L449.2,21.8 L474.4,21.8 L499.5,21.8 L524.7,21.8 L549.8,21.8 L575.0,21.8 h0.01"/></g></g><g id="gnuplot_plot_4"><title>gnuplot_plot_4</title><g style="fill:none;color:#0ff;stroke:currentColor;stroke-width:1;stroke-linecap:butt;stroke-linejoin:miter"><g style="stroke:none;fill:#000;font-family:Arial;font-size:12pt;text-anchor:end"><text transform="translate(507.9,93.2)"><tspan>ZDT6</tspan></text></g><path d="M516.2,88.7 L558.4,88.7 M71.9,403.4 L97.1,137.9 L122.2,82.0 L147.4,76.8 L172.5,71.5 L197.7,69.1 L222.8,68.6 L248.0,67.6 L273.1,67.6 L298.3,67.5 L323.5,67.5 L348.6,67.5 L373.8,67.5 L398.9,67.5 L424.1,67.5 L449.2,67.5 L474.4,67.5 L499.5,67.5 L524.7,67.5 L549.8,67.5 L575.0,67.5 h0.01"/></g></g><g style="fill:none;color:#000;stroke:currentColor;stroke-width:1;stroke-linecap:butt;stroke-linejoin:miter"><path stroke="#000" d="M71.9,16.7 L71.9,422.4 L575.0,422.4 L575.0,16.7 L71.9,16.7 Z h0.01"/></g></g></svg>